PathFileType	3	(X/Y/Z)	running_1__fused_aligned.trc
DataRate	CameraRate	NumFrames	NumMarkers	Units	OrigDataRate	OrigDataStartFrame	OrigNumFrames
100.0	100.0	6	19	mm	100.0	5030	6379
Frame#	Time	pelvis			neck			head			hip_left			hip_right			knee_left			knee_right			ankle_left			ankle_right			heel_left			heel_right			toe_left			toe_right			shoulder_left			shoulder_right			elbow_left			elbow_right			wrist_left			wrist_right			
		X1	Y1	Z1	X2	Y2	Z2	X3	Y3	Z3	X4	Y4	Z4	X5	Y5	Z5	X6	Y6	Z6	X7	Y7	Z7	X8	Y8	Z8	X9	Y9	Z9	X10	Y10	Z10	X11	Y11	Z11	X12	Y12	Z12	X13	Y13	Z13	X14	Y14	Z14	X15	Y15	Z15	X16	Y16	Z16	X17	Y17	Z17	X18	Y18	Z18	X19	Y19	Z19	
5030	50.29000	12.757663	949.115306	112.927834	-12.398106	1490.666292	264.433206	-16.787280	1571.441596	412.934630	88.302928	950.006494	109.228953	-62.787624	948.224120	116.626720	114.530858	520.945527	119.653402	-73.464017	539.441032	265.441697	93.624831	261.084605	-186.511633	-88.268159	152.537395	161.564858	84.201099	255.032101	-240.798125	-91.711859	107.014595	122.980066	102.257425	85.703891	-128.451799	-77.607109	85.013973	340.609134	158.467723	1469.293788	227.286024	-175.366217	1447.574433	205.906668	260.651704	1235.865899	132.744961	-259.472572	1224.921729	74.006152	172.410123	1135.950344	308.964965	-217.436609	1058.927762	236.406617
5031	50.30000	10.394969	950.706344	114.430836	-14.206341	1492.354221	265.612065	-17.714862	1573.206194	413.967646	85.952936	951.535256	110.701367	-65.162995	949.877432	118.160312	113.002453	522.708412	123.548780	-76.294501	540.098570	260.199314	92.962405	262.799016	-178.909865	-90.356020	150.819422	156.995379	83.684014	256.633399	-232.799262	-93.664931	104.980122	118.306783	101.281954	88.327827	-120.916768	-79.544247	83.129828	336.932952	155.717473	1471.524375	226.651268	-177.329668	1448.936111	208.993977	257.388548	1240.758003	128.165214	-261.585515	1224.906077	81.333292	172.939838	1137.946718	303.235232	-215.969849	1062.700365	243.533746
5032	50.31000	8.032276	952.297382	115.933838	-16.014576	1494.042150	266.790924	-18.642444	1574.970791	415.000662	83.602945	953.064019	112.173781	-67.538366	951.530743	119.693903	111.474049	524.471297	127.444158	-79.124985	540.756107	254.956932	92.299978	264.513426	-171.308096	-92.443881	149.101448	152.425900	83.166930	258.234697	-224.800399	-95.618004	102.945649	113.633500	100.306482	90.951762	-113.381736	-81.481385	81.245684	333.256770	152.967224	1473.754963	226.016511	-179.293119	1450.297789	212.081286	254.125392	1245.650107	123.585467	-263.698458	1224.890425	88.660432	173.469554	1139.943092	297.505499	-214.503089	1066.472969	250.660875
5033	50.32000	5.669583	953.888420	117.436840	-17.822811	1495.730078	267.969783	-19.570026	1576.735388	416.033678	81.252953	954.592781	113.646196	-69.913737	953.184054	121.227495	109.945644	526.234183	131.339536	-81.955469	541.413644	249.714550	91.637552	266.227837	-163.706328	-94.531742	147.383475	147.856421	82.649845	259.835995	-216.801536	-97.571076	100.911175	108.960217	99.331010	93.575697	-105.846704	-83.418523	79.361539	329.580589	150.216974	1475.985550	225.381755	-181.256570	1451.659467	215.168595	250.862236	1250.542212	119.005720	-265.811400	1224.874772	95.987572	173.999269	1141.939466	291.775766	-213.036329	1070.245572	257.788005
5034	50.33000	3.306889	955.479459	118.939841	-19.631046	1497.418007	269.148642	-20.497608	1578.499986	417.066694	78.902961	956.121544	115.118610	-72.289107	954.837366	122.761086	108.417240	527.997068	135.234914	-84.785953	542.071181	244.472167	90.975126	267.942247	-156.104560	-96.619602	145.665501	143.286942	82.132761	261.437294	-208.802673	-99.524149	98.876702	104.286934	98.355538	96.199632	-98.311673	-85.355661	77.477395	325.904407	147.466725	1478.216137	224.746999	-183.220021	1453.021145	218.255904	247.599081	1255.434316	114.425973	-267.924343	1224.859120	103.314712	174.528985	1143.935840	286.046033	-211.569569	1074.018175	264.915134
5035	50.34000	0.944196	957.070497	120.442843	-21.439281	1499.105935	270.327502	-21.425190	1580.264583	418.099710	76.552969	957.650306	116.591024	-74.664478	956.490677	124.294678	106.888835	529.759954	139.130292	-87.616437	542.728718	239.229785	90.312700	269.656658	-148.502792	-98.707463	143.947528	138.717463	81.615676	263.038592	-200.803810	-101.477222	96.842229	99.613651	97.380066	98.823568	-90.776641	-87.292799	75.593250	322.228225	144.716475	1480.446724	224.112243	-185.183471	1454.382823	221.343212	244.335925	1260.326420	109.846226	-270.037286	1224.843468	110.641851	175.058700	1145.932214	280.316300	-210.102809	1077.790779	272.042263
